<?xml version="1.0" standalone="no"?>
<!DOCTYPE svg PUBLIC "-//W3C//DTD SVG 20010904//EN"
 "http://www.w3.org/TR/2001/REC-SVG-20010904/DTD/svg10.dtd">
<svg version="1.0" xmlns="http://www.w3.org/2000/svg"
 width="2304.000000pt" height="2304.000000pt" viewBox="0 0 2304.000000 2304.000000"
 preserveAspectRatio="xMidYMid meet">
<metadata>
Created by potrace 1.14, written by Peter Selinger 2001-2017
</metadata>
<g transform="translate(0.000000,2304.000000) scale(0.100000,-0.100000)"
fill="#000000" stroke="none">
<path d="M532 22918 c-15 -15 -16 -48 -2 -48 6 0 10 6 10 14 0 16 34 31 50 21
21 -13 9 -45 -25 -67 -28 -19 -55 -54 -55 -73 0 -10 109 -5 115 5 4 6 -12 10
-41 10 -46 0 -47 0 -29 20 10 11 25 22 35 25 26 8 41 50 30 80 -8 20 -16 25
-43 25 -18 0 -38 -5 -45 -12z"/>
<path d="M674 22922 c-19 -12 -27 -52 -11 -52 8 0 17 9 20 20 6 24 42 27 51 5
6 -17 -2 -45 -14 -45 -15 0 -70 -58 -70 -74 0 -13 11 -16 56 -16 40 0 54 4 52
12 -3 8 -19 12 -42 10 -46 -4 -44 8 4 40 57 38 51 108 -9 108 -14 0 -31 -4
-37 -8z"/>
<path d="M532 20938 c-14 -14 -16 -48 -3 -48 5 0 13 9 16 21 9 27 49 22 53 -7
2 -16 -8 -30 -37 -50 -22 -16 -41 -39 -44 -51 -4 -22 -1 -23 49 -23 29 0 56 5
59 10 4 6 -12 10 -42 10 l-47 0 49 43 c48 43 49 44 36 75 -11 26 -19 32 -45
32 -18 0 -37 -5 -44 -12z"/>
<path d="M667 20930 c-7 -10 -14 -40 -16 -65 -1 -36 3 -50 23 -70 29 -29 63
-23 83 15 14 29 11 104 -6 124 -19 22 -67 20 -84 -4z m67 -16 c9 -23 7 -87 -3
-103 -13 -20 -51 -4 -52 22 -3 33 0 70 5 84 7 18 43 16 50 -3z"/>
<path d="M16567 18112 c-3 -4 -8 -32 -12 -62 -4 -30 -15 -73 -25 -95 -10 -22
-50 -110 -88 -195 -70 -154 -95 -211 -147 -325 -207 -456 -213 -469 -401 -940
-35 -88 -70 -173 -78 -190 -8 -16 -55 -131 -106 -255 -51 -124 -100 -243 -110
-265 -9 -22 -37 -88 -61 -147 -33 -81 -49 -108 -66 -112 -19 -5 -85 -97 -359
-498 -21 -31 -43 -54 -48 -51 -5 4 -7 2 -3 -3 3 -5 -7 -27 -22 -49 -153 -225
-141 -200 -241 -505 -51 -157 -116 -346 -145 -420 -124 -318 -277 -707 -286
-725 -71 -155 -141 -361 -169 -497 -18 -84 -33 -160 -35 -168 -2 -8 -11 -49
-20 -90 -8 -41 -36 -156 -60 -255 -24 -99 -67 -280 -94 -402 -28 -123 -67
-276 -87 -340 -20 -65 -51 -169 -69 -230 -19 -62 -41 -128 -50 -145 -18 -38
-61 -89 -72 -87 -22 4 -32 -5 -54 -46 -14 -26 -31 -45 -41 -45 -19 0 -162 138
-283 274 -44 49 -85 94 -90 100 -6 6 -40 52 -75 101 -36 50 -193 245 -350 434
-157 189 -307 371 -334 404 -37 45 -73 113 -143 271 -51 116 -102 229 -112
251 -10 22 -56 123 -101 225 -45 102 -91 205 -102 230 -11 25 -36 81 -55 125
-20 44 -67 145 -106 225 -38 80 -103 214 -143 298 -41 84 -117 255 -170 380
-98 232 -110 256 -124 247 -13 -8 -32 21 -164 258 -13 23 -62 107 -109 187
l-85 145 -108 26 c-60 14 -160 38 -222 53 l-113 26 -544 0 -545 0 -100 -50
c-55 -27 -108 -50 -117 -50 -10 0 -63 -13 -118 -29 -55 -16 -172 -50 -260 -76
-88 -25 -203 -59 -255 -75 -116 -35 -334 -100 -575 -170 -99 -29 -254 -74
-345 -100 -148 -44 -210 -58 -305 -75 -16 -3 -41 -7 -55 -10 -14 -3 -63 -12
-110 -21 -243 -44 -222 -36 -333 -132 -56 -48 -104 -89 -107 -92 -3 -3 -34
-30 -70 -60 -36 -30 -67 -57 -70 -60 -3 -3 -48 -41 -100 -85 -52 -44 -99 -85
-105 -91 -5 -5 -44 -39 -85 -75 -41 -35 -91 -80 -111 -99 -20 -19 -103 -98
-184 -175 -82 -77 -154 -145 -160 -152 -7 -6 -85 -55 -173 -107 l-160 -96
-114 58 c-119 60 -185 89 -265 118 l-48 17 -125 -63 c-69 -34 -129 -66 -135
-70 -26 -20 -115 -65 -227 -113 l-123 -53 -210 1 c-199 1 -212 3 -250 24 -22
13 -58 33 -80 44 -22 12 -86 69 -142 127 -95 97 -105 104 -137 102 -40 -4 -56
4 -203 102 -198 133 -269 189 -301 242 -18 30 -37 54 -42 54 -5 0 -38 14 -73
30 -36 17 -68 30 -71 30 -4 0 -25 9 -49 20 -23 11 -109 42 -190 69 -105 36
-171 64 -225 99 l-77 49 -780 -1 c-429 -1 -778 -4 -775 -7 3 -3 -1 -13 -9 -22
-7 -10 -10 -17 -5 -17 5 0 9 -79 9 -175 0 -110 -4 -175 -10 -175 -7 0 -7 -3 0
-8 6 -4 10 -55 10 -117 0 -62 -4 -113 -10 -117 -7 -5 -7 -8 0 -8 6 0 10 -33
10 -79 0 -45 -4 -77 -9 -74 -5 4 -5 0 0 -8 13 -21 14 -39 1 -39 -8 0 -7 -3 2
-9 9 -6 10 -11 2 -15 -6 -4 -8 -13 -4 -19 12 -20 12 -37 0 -37 -8 0 -7 -3 2
-9 9 -6 10 -11 2 -15 -6 -4 -8 -13 -4 -19 12 -20 12 -37 0 -37 -8 0 -7 -3 2
-9 9 -6 10 -11 2 -15 -6 -4 -8 -13 -4 -19 12 -20 12 -37 0 -37 -8 0 -8 -3 -2
-8 6 -4 10 -61 10 -135 0 -78 -4 -127 -10 -127 -7 0 -7 -3 0 -8 6 -4 10 -55
10 -117 0 -62 -4 -113 -10 -117 -7 -5 -7 -8 0 -8 6 0 10 -33 10 -79 0 -45 -4
-77 -9 -74 -5 4 -5 0 0 -8 13 -21 14 -39 1 -39 -8 0 -7 -3 2 -9 9 -6 10 -11 2
-15 -6 -4 -8 -13 -4 -19 12 -20 12 -37 0 -37 -8 0 -7 -3 2 -9 9 -6 10 -11 2
-15 -6 -4 -8 -13 -4 -19 12 -20 12 -37 0 -37 -8 0 -7 -3 2 -9 9 -6 10 -11 2
-15 -6 -4 -8 -13 -4 -19 12 -20 12 -37 0 -37 -8 0 -8 -3 -2 -8 6 -4 10 -61 10
-135 0 -78 -4 -127 -10 -127 -7 0 -7 -3 0 -8 6 -4 10 -55 10 -117 0 -62 -4
-113 -10 -117 -7 -5 -7 -8 0 -8 6 0 9 -86 7 -242 -1 -134 -2 -249 -2 -255 0
-33 0 -224 0 -235 0 -25 0 -383 0 -398 0 -8 1 -133 2 -278 2 -170 -1 -262 -7
-262 -7 0 -7 -3 0 -8 6 -4 10 -55 10 -117 0 -62 -4 -113 -10 -117 -7 -5 -7 -8
0 -8 6 0 10 -33 10 -79 0 -45 -4 -77 -9 -74 -5 4 -5 0 0 -8 13 -21 14 -39 1
-39 -8 0 -7 -3 2 -9 9 -6 10 -11 2 -15 -6 -4 -8 -13 -4 -19 12 -20 12 -37 0
-37 -8 0 -7 -3 2 -9 9 -6 10 -11 2 -15 -6 -4 -8 -13 -4 -19 12 -20 12 -37 0
-37 -8 0 -7 -3 2 -9 9 -6 10 -11 2 -15 -6 -4 -8 -13 -4 -19 12 -20 12 -37 0
-37 -8 0 -8 -3 -2 -8 6 -4 10 -61 10 -135 0 -78 -4 -127 -10 -127 -7 0 -7 -3
0 -8 6 -4 10 -55 10 -117 0 -62 -4 -113 -10 -117 -7 -5 -7 -8 0 -8 6 0 10 -33
10 -79 0 -45 -4 -77 -9 -74 -5 4 -5 0 0 -8 13 -21 14 -39 1 -39 -8 0 -7 -3 2
-9 9 -6 10 -11 2 -15 -6 -4 -8 -13 -4 -19 12 -20 12 -37 0 -37 -8 0 -7 -3 2
-9 9 -6 10 -11 2 -15 -6 -4 -8 -13 -4 -19 12 -20 12 -37 0 -37 -8 0 -7 -3 2
-9 9 -6 10 -11 2 -15 -6 -4 -8 -13 -4 -19 12 -20 12 -37 0 -37 -8 0 -8 -3 -2
-8 6 -4 10 -61 10 -135 0 -78 -4 -127 -10 -127 -7 0 -7 -3 0 -8 6 -4 10 -55
10 -117 0 -62 -4 -113 -10 -117 -7 -5 -7 -8 0 -8 6 0 9 -86 7 -242 -1 -134 -2
-247 -2 -253 0 -5 0 -147 0 -315 0 -168 0 -312 0 -320 0 -8 1 -133 2 -278 2
-168 -1 -264 -7 -266 -7 -3 -7 -5 0 -5 6 -1 9 -34 7 -83 -3 -96 -3 -78 -1
-198 1 -52 0 -99 -1 -105 -1 -5 -1 -12 0 -15 8 -21 6 -40 -3 -40 -8 0 -7 -3 2
-9 9 -6 10 -11 2 -15 -6 -4 -8 -13 -4 -19 12 -20 12 -37 0 -37 -8 0 -7 -3 2
-9 9 -6 10 -11 2 -15 -6 -4 -8 -13 -4 -19 12 -20 12 -37 0 -37 -8 0 -7 -3 2
-9 9 -6 10 -11 2 -15 -6 -4 -8 -13 -4 -19 12 -20 12 -37 0 -37 -8 0 -8 -3 -2
-8 6 -4 10 -61 10 -135 0 -78 -4 -127 -10 -127 -7 0 -7 -3 0 -8 6 -4 10 -55
10 -117 0 -62 -4 -113 -10 -117 -7 -5 -7 -8 0 -8 6 0 10 -33 10 -79 0 -45 -4
-77 -9 -74 -5 4 -5 0 0 -8 13 -21 14 -39 1 -39 -8 0 -7 -3 2 -9 9 -6 10 -11 2
-15 -6 -4 -8 -13 -4 -19 12 -20 12 -37 0 -37 -8 0 -7 -3 2 -9 9 -6 10 -11 2
-15 -6 -4 -8 -13 -4 -19 12 -20 12 -37 0 -37 -8 0 -7 -3 2 -9 9 -6 10 -11 2
-15 -6 -4 -8 -13 -4 -19 12 -20 12 -37 0 -37 -8 0 -8 -3 -2 -8 6 -4 10 -61 10
-135 0 -78 -4 -127 -10 -127 -7 0 -7 -3 0 -8 6 -4 10 -55 10 -117 0 -62 -4
-113 -10 -117 -7 -5 -7 -8 0 -8 6 0 9 -86 7 -242 -1 -134 -2 -247 -2 -253 0
-5 0 -147 0 -315 0 -168 0 -312 0 -320 0 -8 1 -133 2 -278 2 -170 -1 -262 -7
-262 -7 0 -7 -3 0 -8 6 -4 10 -55 10 -117 0 -62 -4 -113 -10 -117 -7 -5 -7 -8
0 -8 6 0 10 -33 10 -79 0 -45 -4 -77 -9 -74 -5 4 -5 0 0 -8 13 -21 14 -39 1
-39 -8 0 -7 -3 2 -9 9 -6 10 -11 2 -15 -6 -4 -8 -13 -4 -19 12 -20 12 -37 0
-37 -8 0 -7 -3 2 -9 9 -6 10 -11 2 -15 -6 -4 -8 -13 -4 -19 12 -20 12 -37 0
-37 -8 0 -7 -3 2 -9 9 -6 10 -11 2 -15 -6 -4 -8 -13 -4 -19 12 -20 12 -37 0
-37 -8 0 -8 -3 -2 -8 6 -4 10 -61 10 -135 0 -78 -4 -127 -10 -127 -7 0 -7 -3
0 -8 6 -4 10 -55 10 -117 0 -62 -4 -113 -10 -117 -7 -5 -7 -8 0 -8 6 0 10 -21
9 -48 l-2 -48 10897 1 c5993 1 10903 -2 10911 -6 13 -6 15 597 13 5399 -1
2974 -2 5417 -2 5429 -1 21 -5 22 -103 21 -72 0 -134 -7 -207 -24 -57 -13
-117 -27 -135 -30 -17 -3 -65 -14 -107 -25 -84 -22 -90 -21 -219 38 -36 17
-218 99 -406 182 l-340 152 -95 89 c-53 51 -162 136 -250 196 -154 106 -156
108 -192 178 -21 39 -56 105 -78 146 -23 41 -84 170 -136 285 -157 348 -531
1118 -646 1330 -24 44 -67 125 -96 180 -30 55 -57 105 -61 110 -6 9 -56 101
-140 261 -109 205 -264 466 -318 534 -24 30 -58 66 -76 80 -18 14 -46 35 -62
47 -71 55 -111 85 -258 188 -86 61 -156 113 -156 118 0 4 -6 7 -13 7 -8 0 -40
24 -73 54 -98 89 -777 769 -801 801 -12 17 -75 100 -140 186 -65 86 -127 168
-138 184 -11 15 -25 32 -30 39 -9 9 -169 227 -332 451 -24 33 -85 111 -135
173 l-91 112 -151 81 c-83 45 -174 95 -203 110 -28 16 -54 26 -56 21z"/>
<path d="M570 15982 c0 -6 -9 -14 -20 -17 -11 -3 -20 -11 -20 -16 0 -5 9 -9
20 -9 18 0 20 -7 20 -61 0 -44 3 -60 13 -56 17 5 16 159 -1 165 -7 2 -12 -1
-12 -6z"/>
<path d="M665 15963 c-15 -68 -16 -64 22 -57 25 5 38 3 44 -7 26 -42 -15 -76
-52 -43 -24 21 -35 13 -19 -15 7 -15 20 -21 44 -21 38 0 56 17 60 55 4 32 -34
66 -66 57 -17 -4 -20 -2 -15 12 4 10 7 20 7 22 0 2 16 4 35 4 19 0 35 5 35 10
0 6 -20 10 -45 10 -41 0 -45 -2 -50 -27z"/>
<path d="M129 12315 c-1 0 -3 -10 -4 -22 -2 -22 10 -32 17 -14 5 15 181 17
186 2 7 -20 23 -11 20 11 -3 22 -7 23 -110 23 -60 0 -109 1 -109 0z"/>
<path d="M198 12252 c-21 -4 -35 -49 -20 -64 7 -7 7 -18 0 -34 -8 -17 -8 -27
2 -39 9 -11 10 -15 0 -15 -6 0 -10 -5 -8 -11 6 -17 120 -18 126 -1 2 8 -10 12
-42 12 -35 0 -48 5 -56 19 -13 25 2 35 54 36 62 0 57 23 -6 27 -45 3 -53 6
-53 23 0 17 8 20 53 23 65 4 73 28 10 27 -24 0 -51 -1 -60 -3z"/>
<path d="M122 12045 l2 -25 113 0 113 0 0 25 c0 14 -4 25 -10 25 -5 0 -10 -7
-10 -15 0 -20 -179 -19 -187 1 -9 23 -23 16 -21 -11z"/>
<path d="M118 11985 c-2 -3 -3 -26 -1 -51 3 -28 1 -44 -5 -40 -6 3 -12 0 -15
-8 -3 -8 1 -17 9 -20 10 -4 13 -18 11 -46 -2 -28 1 -40 10 -40 10 0 12 12 9
45 -2 25 0 45 5 45 5 0 8 -3 8 -7 -5 -33 3 -48 26 -48 24 0 25 2 25 69 l0 68
-33 -4 c-30 -3 -33 -1 -31 19 2 21 -6 30 -18 18z m32 -74 c0 -11 -4 -22 -8
-25 -4 -2 -8 6 -8 20 0 13 4 24 8 24 4 0 8 -9 8 -19z m30 -26 c0 -25 -4 -45
-8 -45 -5 0 -8 20 -8 45 0 25 3 45 8 45 4 0 8 -20 8 -45z"/>
<path d="M210 11885 l0 -100 55 -1 c36 -1 54 3 52 10 -2 6 -21 11 -43 11 l-39
1 -3 77 -3 77 36 0 c25 0 35 -4 32 -12 -2 -7 -15 -13 -28 -13 -22 0 -24 -5
-27 -52 -3 -52 -3 -53 26 -53 29 0 29 0 24 50 -4 41 -2 50 12 50 17 0 19 14 8
40 -5 10 -22 15 -54 15 l-48 1 0 -101z m60 -1 c0 -19 -4 -33 -8 -30 -5 3 -8
15 -6 28 1 13 3 26 3 31 1 4 3 7 6 7 3 0 5 -16 5 -36z"/>
<path d="M280 11740 c-6 -11 -15 -18 -21 -15 -5 4 -7 11 -4 16 4 5 1 9 -4 9
-13 0 -12 4 -14 -82 -2 -48 1 -68 10 -68 7 0 10 7 6 16 -5 14 -3 15 15 5 40
-21 27 -41 -25 -40 -27 0 -42 3 -35 6 6 2 10 9 7 14 -3 5 -15 3 -25 -3 -15
-10 -22 -10 -32 0 -9 9 -6 12 17 13 17 1 33 1 38 0 9 -1 9 0 11 72 2 51 0 56
-16 51 -10 -3 -18 -1 -18 5 0 23 -45 6 -51 -19 l-7 -25 -1 28 c0 15 -7 27 -13
27 -10 0 -12 -20 -10 -75 2 -43 8 -75 14 -75 6 0 8 6 5 13 -3 8 -1 20 4 28 6
10 9 2 9 -23 0 -35 -2 -38 -27 -38 -30 0 -21 -15 12 -22 11 -2 19 -10 18 -16
-4 -17 17 -15 23 3 5 13 10 13 41 0 45 -19 64 -19 39 0 -18 14 -16 15 27 15
26 0 47 5 47 10 0 6 -5 10 -11 10 -6 0 -8 8 -4 19 4 14 -1 23 -17 33 -13 7
-27 11 -32 10 -5 -2 -4 4 3 12 13 15 41 12 41 -5 0 -5 4 -9 9 -9 12 0 10 39
-1 41 -4 1 -12 3 -18 4 -5 1 -17 3 -25 4 -8 0 -15 6 -15 11 0 6 7 10 16 8 19
-4 50 37 35 46 -5 4 -15 -3 -21 -14z m-100 -31 c0 -6 -4 -7 -10 -4 -5 3 -10
11 -10 16 0 6 5 7 10 4 6 -3 10 -11 10 -16z m27 -34 c0 -25 -3 -45 -7 -45 -5
0 -6 77 -1 88 5 11 9 -5 8 -43z m-70 -7 c-3 -8 -6 -5 -6 6 -1 11 2 17 5 13 3
-3 4 -12 1 -19z m35 0 c-7 -7 -12 -8 -12 -2 0 14 12 26 19 19 2 -3 -1 -11 -7
-17z m8 -28 c0 -5 -5 -10 -11 -10 -5 0 -7 5 -4 10 3 6 8 10 11 10 2 0 4 -4 4
-10z"/>
<path d="M565 11019 c-5 -5 -19 -16 -30 -24 -19 -14 -19 -14 8 -15 26 0 27 -1
27 -61 0 -43 4 -59 12 -57 8 3 12 32 13 86 1 80 -6 95 -30 71z"/>
<path d="M666 11008 c-9 -12 -16 -42 -16 -66 0 -73 62 -113 101 -65 19 22 21
104 3 130 -20 31 -67 31 -88 1z m72 -53 c3 -60 -7 -80 -37 -70 -14 4 -21 15
-22 33 -1 15 -2 34 -3 42 -3 28 15 51 37 48 19 -3 22 -10 25 -53z"/>
<path d="M665 6043 c-15 -68 -16 -64 22 -57 25 5 38 3 44 -7 26 -42 -15 -76
-52 -43 -24 21 -35 13 -19 -15 7 -15 20 -21 44 -21 38 0 56 17 60 55 4 32 -34
66 -66 57 -17 -4 -20 -2 -15 12 4 10 7 20 7 22 0 2 16 4 35 4 19 0 35 5 35 10
0 6 -20 10 -45 10 -41 0 -45 -2 -50 -27z"/>
<path d="M666 1088 c-9 -12 -16 -41 -16 -63 0 -22 7 -51 16 -63 18 -26 65 -30
85 -6 19 23 21 104 3 131 -20 31 -67 31 -88 1z m72 -53 c3 -60 -7 -80 -37 -70
-14 4 -21 15 -22 33 -1 15 -2 34 -3 42 -3 28 15 51 37 48 19 -3 22 -10 25 -53z"/>
<path d="M956 734 c-23 -22 -25 -116 -4 -141 18 -22 71 -16 87 9 17 27 16 100
-1 128 -15 24 -60 27 -82 4z m63 -21 c12 -24 7 -91 -8 -106 -21 -21 -46 6 -47
49 -1 45 11 74 31 74 8 0 18 -8 24 -17z"/>
<path d="M4366 728 c-9 -12 -16 -41 -16 -63 0 -22 7 -51 16 -63 18 -26 65 -30
85 -5 18 21 17 116 0 137 -20 24 -67 20 -85 -6z m70 -20 c17 -56 2 -107 -33
-108 -21 0 -35 92 -18 119 11 19 43 12 51 -11z"/>
<path d="M4566 734 c-9 -8 -16 -22 -16 -30 0 -21 27 -17 33 6 6 24 42 27 51 5
6 -17 -2 -45 -14 -45 -15 0 -70 -58 -70 -74 0 -13 11 -16 55 -16 30 0 55 5 55
10 0 6 -18 10 -41 10 -47 0 -47 10 1 42 58 39 51 108 -11 108 -15 0 -35 -7
-43 -16z"/>
<path d="M7880 730 c-15 -27 -15 -102 -1 -128 9 -16 21 -22 47 -22 30 0 37 5
48 31 15 36 6 117 -15 130 -25 16 -68 10 -79 -11z m64 -9 c13 -20 16 -82 6
-101 -22 -41 -60 -12 -60 45 0 48 36 85 54 56z"/>
<path d="M8107 703 c-53 -74 -54 -83 -7 -83 33 0 40 -3 40 -20 0 -11 5 -20 10
-20 9 0 11 7 9 26 0 3 8 12 18 20 16 12 16 13 1 14 -12 0 -16 9 -16 38 0 89
-6 92 -55 25z m33 -28 c0 -31 -3 -35 -25 -35 l-24 0 20 35 c12 19 23 35 25 35
2 0 4 -16 4 -35z"/>
<path d="M11399 734 c-18 -22 -20 -109 -2 -134 19 -28 67 -27 87 2 9 12 16 41
16 63 0 22 -7 51 -16 63 -18 26 -65 30 -85 6z m71 -28 c10 -26 3 -86 -11 -101
-28 -29 -59 43 -45 101 8 32 44 32 56 0z"/>
<path d="M11602 725 c-15 -19 -19 -37 -17 -70 3 -55 18 -75 56 -75 51 0 76 52
46 94 -10 14 -23 17 -45 14 -35 -5 -43 11 -16 33 12 10 20 10 35 1 29 -19 41
-15 29 8 -16 29 -64 26 -88 -5z m67 -77 c10 -27 -3 -48 -29 -48 -21 0 -33 25
-25 51 9 26 44 24 54 -3z"/>
<path d="M14916 734 c-11 -10 -16 -34 -16 -69 0 -35 5 -59 16 -69 20 -20 68
-21 84 -1 17 21 17 119 1 139 -17 21 -65 21 -85 0z m70 -28 c14 -59 -17 -129
-45 -101 -16 16 -22 71 -11 99 12 34 47 35 56 2z"/>
<path d="M15111 728 c-5 -13 -5 -30 -1 -39 5 -8 4 -22 -1 -30 -15 -24 -10 -58
11 -69 53 -28 111 12 86 60 -9 18 -9 30 -2 43 17 27 -5 51 -48 55 -30 3 -38
-1 -45 -20z m67 -20 c-3 -25 -17 -32 -37 -19 -19 12 -6 41 19 41 16 0 21 -5
18 -22z m0 -57 c19 -12 11 -45 -12 -49 -26 -5 -50 26 -35 45 13 15 28 16 47 4z"/>
<path d="M18460 735 c-7 -8 -19 -15 -27 -15 -8 0 -11 -4 -8 -10 3 -5 15 -10
26 -10 17 0 19 -7 19 -60 0 -92 18 -71 22 25 3 86 -5 103 -32 70z"/>
<path d="M18627 730 c-17 -24 -15 -113 2 -134 15 -17 58 -21 80 -7 19 12 27
106 11 137 -17 31 -72 34 -93 4z m72 -23 c9 -23 6 -81 -4 -98 -12 -18 -43 -9
-49 14 -8 29 -8 71 0 91 9 24 43 19 53 -7z"/>
<path d="M22710 741 c0 -5 -9 -13 -20 -16 -11 -3 -20 -11 -20 -16 0 -5 9 -9
20 -9 18 0 20 -7 20 -60 0 -41 4 -60 13 -60 8 0 12 24 12 85 1 63 -2 85 -12
85 -7 0 -13 -4 -13 -9z"/>
<path d="M22873 738 c-19 -25 -23 -48 -8 -48 7 0 17 9 20 21 9 28 49 22 53 -8
2 -16 -6 -28 -32 -45 -20 -13 -40 -35 -45 -50 l-10 -28 60 0 c33 0 59 4 59 10
0 6 -21 10 -47 10 l-48 0 48 43 c50 46 57 66 31 91 -19 19 -68 21 -81 4z"/>
<path d="M4497 604 c-9 -10 2 -24 19 -24 8 0 14 7 14 15 0 15 -21 21 -33 9z"/>
<path d="M8010 595 c0 -8 7 -15 15 -15 8 0 15 7 15 15 0 8 -7 15 -15 15 -8 0
-15 -7 -15 -15z"/>
<path d="M11527 604 c-9 -9 2 -24 17 -24 7 0 13 7 13 15 0 15 -18 20 -30 9z"/>
<path d="M15040 595 c0 -8 7 -15 15 -15 8 0 15 7 15 15 0 8 -7 15 -15 15 -8 0
-15 -7 -15 -15z"/>
<path d="M18557 604 c-9 -10 2 -24 19 -24 8 0 14 7 14 15 0 15 -21 21 -33 9z"/>
<path d="M22800 595 c0 -8 7 -15 15 -15 8 0 15 7 15 15 0 8 -7 15 -15 15 -8 0
-15 -7 -15 -15z"/>
<path d="M11460 303 c0 -34 3 -41 15 -37 10 4 15 0 16 -12 0 -11 2 -32 3 -47
1 -16 -2 -31 -6 -33 -4 -3 -8 13 -8 35 0 23 -4 41 -10 41 -5 0 -10 -19 -10
-43 0 -24 -5 -48 -12 -55 -17 -17 23 -16 67 2 33 14 35 14 35 -5 0 -10 7 -19
15 -19 8 0 15 4 15 9 0 5 21 7 46 4 34 -3 45 -1 42 9 -3 7 -22 13 -46 13 -22
0 -44 4 -48 7 -14 15 17 36 47 33 30 -4 31 -3 33 53 1 24 -3 27 -36 30 -20 2
-39 10 -42 18 -4 11 4 14 39 14 64 0 65 18 0 22 -31 2 -56 -1 -59 -7 -2 -6 -2
-32 -1 -58 3 -48 -5 -56 -34 -38 -7 5 -10 14 -7 20 4 6 12 9 17 5 6 -4 9 10 7
37 -3 43 -3 43 -41 44 -37 0 -37 0 -37 -42z m60 -3 c0 -13 -7 -18 -20 -17 -19
1 -28 26 -14 40 11 11 34 -5 34 -23z m114 -46 c8 -20 8 -19 -21 -28 -16 -5
-25 -2 -32 12 -6 11 -7 22 -4 26 13 12 51 6 57 -10z m-78 -55 c0 -13 -7 -19
-23 -19 -20 0 -31 19 -18 31 13 14 41 6 41 -12z"/>
<path d="M11730 339 c0 -6 -9 -9 -20 -6 -13 3 -20 0 -20 -10 0 -8 3 -12 8 -10
4 3 7 -15 7 -39 0 -24 -2 -44 -5 -44 -3 0 -6 -22 -6 -50 -1 -51 10 -66 21 -30
5 15 14 20 36 18 16 -1 29 -6 29 -11 0 -5 -7 -7 -15 -3 -8 3 -15 1 -15 -4 0
-14 17 -21 34 -14 18 7 24 94 6 94 -5 0 -7 7 -4 15 13 34 24 11 24 -51 0 -59
2 -65 18 -59 9 4 32 8 50 8 20 -1 31 4 29 11 -2 6 -11 10 -20 8 -10 -2 -15 4
-14 18 1 11 7 20 14 20 7 0 13 5 13 10 0 6 -7 10 -15 10 -8 0 -15 5 -15 10 0
6 7 13 15 16 8 4 15 10 15 15 0 5 -7 9 -15 9 -22 0 -18 18 5 25 11 4 18 11 14
16 -3 5 -10 6 -16 3 -7 -5 -9 0 -6 14 4 15 2 22 -8 22 -8 0 -14 -7 -14 -15 0
-8 -4 -15 -10 -15 -5 0 -10 7 -10 15 0 26 -18 16 -29 -15 -12 -37 -24 -40 -15
-4 6 23 4 25 -15 19 -12 -4 -21 -2 -21 4 0 6 -7 11 -15 11 -8 0 -15 -5 -15
-11z m30 -23 c0 -3 -4 -8 -10 -11 -5 -3 -10 -1 -10 4 0 6 5 11 10 11 6 0 10
-2 10 -4z m90 -31 c0 -8 -4 -15 -10 -15 -5 0 -10 7 -10 15 0 8 5 15 10 15 6 0
10 -7 10 -15z m-93 -21 c-3 -3 -12 -4 -19 -1 -8 3 -5 6 6 6 11 1 17 -2 13 -5z
m97 -29 c-4 -8 -10 -15 -15 -15 -5 0 -9 7 -9 15 0 8 7 15 15 15 9 0 12 -6 9
-15z m-132 -37 c-7 -7 -12 -8 -12 -2 0 14 12 26 19 19 2 -3 -1 -11 -7 -17z
m58 5 c0 -15 -2 -16 -10 -3 -9 13 -11 13 -20 0 -5 -8 -10 -10 -10 -4 0 14 10
24 27 24 7 0 13 -8 13 -17z m73 -9 c8 -8 -3 -34 -14 -34 -5 0 -9 9 -9 20 0 19
11 26 23 14z"/>
<path d="M11935 318 c-3 -7 -4 -58 -2 -113 2 -95 3 -100 25 -103 24 -4 30 12
9 25 -18 11 -18 183 0 183 7 0 13 5 13 10 0 14 -40 12 -45 -2z"/>
<path d="M11997 323 c-10 -19 -1 -167 11 -171 7 -2 12 6 12 22 0 37 16 40 36
6 10 -16 24 -30 31 -30 18 0 16 13 -7 43 -25 32 -25 35 2 64 31 33 1 30 -34
-4 l-28 -27 0 47 c0 42 -12 69 -23 50z"/>
<path d="M12310 320 c0 -5 5 -10 10 -10 6 0 10 -38 10 -95 0 -57 -4 -95 -10
-95 -5 0 -10 -4 -10 -10 0 -18 40 -11 41 8 1 25 1 174 0 195 -1 18 -41 25 -41
7z"/>
<path d="M12120 212 c0 -44 4 -62 12 -60 6 2 12 24 12 48 1 29 6 46 18 54 23
14 30 5 33 -46 4 -59 4 -58 15 -58 6 0 10 22 10 49 0 35 4 51 16 55 26 10 34
-3 34 -55 0 -35 4 -49 14 -49 11 0 14 13 12 55 -3 69 -15 83 -56 68 -17 -6
-30 -7 -30 -2 0 5 -20 8 -45 7 l-45 -2 0 -64z"/>
</g>
</svg>
